{"title":"Mere Dost Picture Abhi Baki Hai [2012]-1CD-DVDRip-By-K@rtik [EXD","uid":7637443,"size":741317411,"categoryP":"video","categoryS":"movies","magnet":"?xt=urn:btih:b135f8974055874ec3637bf38fd166f8da7c6184&amp;dn=Mere+Dost+Picture+Abhi+Baki+Hai+%5B2012%5D-1CD-DVDRip-By-K%40rtik+%5BEXD&amp;tr=udp%3A%2F%2Ftracker.openbittorrent.com%3A80&amp;tr=udp%3A%2F%2Fopen.demonii.com%3A1337&amp;tr=udp%3A%2F%2Ftracker.coppersurfer.tk%3A6969&amp;tr=udp%3A%2F%2Fexodus.desync.com%3A6969","seeders":0,"leechers":1,"uploader":"TeamExD","files":3,"time":1347685563,"description":"Format                                   : Matroska\nFormat version                           : Version 2\nFile size                                : 697 MiB\nDuration                                 : 2h 3mn\nOverall bit rate                         : 789 Kbps\nMovie name                               : Mere Dost Picture Abhi Baki Hai [2012]-1CD-DVDRip-By-K@rtik [EXD Exclusive]\nCodec ID                                 : V_MPEG4/ISO/AVC\nDuration                                 : 2h 3mn\nBit rate                                 : 660 Kbps\nWidth                                    : 720 pixels\nHeight                                   : 304 pixels\nDisplay aspect ratio                     : 2.35:1\nFrame rate                               : 29.970 fps\nColor space                              : YUV\nChroma subsampling                       : 4:2:0\nBit depth                                : 8 bits\nScan type                                : Progressive\nBits/(Pixel*Frame)                       : 0.101\nStream size                              : 570 MiB (82%)\nTitle                                    : K@rtik\nCodec ID                                 : A_AC3\nDuration                                 : 2h 3mn\nBit rate mode                            : Constant\nBit rate                                 : 128 Kbps\nChannel(s)                               : 2 channels\nChannel positions                        : Front: L R\nSampling rate                            : 48.0 KHz\nBit depth                                : 16 bits\nCompression mode                         : Lossy\nStream size                              : 113 MiB (16%)\nTitle                                    : K@rtik &lt;a href=&quot;\nhttp://imageshack.us/a/img571/9428/20185190.png&quot; rel=&quot;nofollow&quot; target=&quot;_NEW&quot;&gt;\nhttp://imageshack.us/a/img571/9428/20185190.png&lt;/a&gt; &lt;a href=&quot;\nhttp://imageshack.us/a/img594/3964/85155179.png&quot; rel=&quot;nofollow&quot; target=&quot;_NEW&quot;&gt;\nhttp://imageshack.us/a/img594/3964/85155179.png&lt;/a&gt; &lt;a href=&quot;\nhttp://imageshack.us/a/img4/130/63535034.png&quot; rel=&quot;nofollow&quot; target=&quot;_NEW&quot;&gt;\nhttp://imageshack.us/a/img4/130/63535034.png&lt;/a&gt; &lt;a href=&quot;\nhttp://imageshack.us/a/img14/5820/79692420.png&quot; rel=&quot;nofollow&quot; target=&quot;_NEW&quot;&gt;\nhttp://imageshack.us/a/img14/5820/79692420.png&lt;/a&gt; &lt;a href=&quot;\nhttp://imageshack.us/a/img707/2898/32730447.png&quot; rel=&quot;nofollow&quot; target=&quot;_NEW&quot;&gt;\nhttp://imageshack.us/a/img707/2898/32730447.png&lt;/a&gt; &lt;a href=&quot;\nhttp://imageshack.us/a/img221/3627/54844625.png&quot; rel=&quot;nofollow&quot; target=&quot;_NEW&quot;&gt;\nhttp://imageshack.us/a/img221/3627/54844625.png&lt;/a&gt; &lt;a href=&quot;\nhttp://imageshack.us/a/img651/6117/16145883.png&quot; rel=&quot;nofollow&quot; target=&quot;_NEW&quot;&gt;\nhttp://imageshack.us/a/img651/6117/16145883.png&lt;/a&gt; &lt;a href=&quot;\nhttp://imageshack.us/a/img846/1623/76309689.png&quot; rel=&quot;nofollow&quot; target=&quot;_NEW&quot;&gt;\nhttp://imageshack.us/a/img846/1623/76309689.png&lt;/a&gt; &lt;a href=&quot;\nhttp://imageshack.us/a/img100/1813/57760269.png&quot; rel=&quot;nofollow&quot; target=&quot;_NEW&quot;&gt;\nhttp://imageshack.us/a/img100/1813/57760269.png&lt;/a&gt; &lt;a href=&quot;\nhttp://imageshack.us/a/img690/6836/86032693.png&quot; rel=&quot;nofollow&quot; target=&quot;_NEW&quot;&gt;\nhttp://imageshack.us/a/img690/6836/86032693.png&lt;/a&gt;\n\n","torrent":{"xt":"urn:btih:b135f8974055874ec3637bf38fd166f8da7c6184","amp;dn":"Mere+Dost+Picture+Abhi+Baki+Hai+%5B2012%5D-1CD-DVDRip-By-K%40rtik+%5BEXD","amp;tr":["udp%3A%2F%2Ftracker.openbittorrent.com%3A80","udp%3A%2F%2Fopen.demonii.com%3A1337","udp%3A%2F%2Ftracker.coppersurfer.tk%3A6969","udp%3A%2F%2Fexodus.desync.com%3A6969"],"infoHash":"b135f8974055874ec3637bf38fd166f8da7c6184","infoHashBuffer":{"type":"Buffer","data":[177,53,248,151,64,85,135,78,195,99,123,243,143,209,102,248,218,124,97,132]},"announce":[],"urlList":[]}}